<?xml version="1.0" encoding="UTF-8"?>
<svg id="_レイヤー_2" data-name="レイヤー 2" xmlns="http://www.w3.org/2000/svg" viewBox="0 0 1084.6 924.9">
  <defs>
    <style>
      .cls-1 {
        fill: #fff;
      }
    </style>
  </defs>
  <g id="_レイヤー_9" data-name="レイヤー 9">
    <g>
      <path class="cls-1" d="M631.78,838.88h-31v3.82h73.74v26.03h-119.94v-50.26h70.88c4.06,0,5.57-1.11,5.57-2.71v-.4c0-1.71-1.96-2.51-5.57-2.51h-70.88v-25.93h77.2c32.81,0,45.9,9.85,45.9,26.74v1.81c0,12.36-9.78,23.42-45.9,23.42Z"/>
      <path class="cls-1" d="M760.3,869.83h-16.1c-40.18,0-52.07-7.74-52.07-34.78v-13.67c0-28.24,12.49-35.48,51.62-35.48h17.31c38.68,0,51.47,7.24,51.47,35.48v13.67c0,27.04-12.04,34.78-52.22,34.78ZM771.43,821.39c0-7.24-4.06-9.25-10.38-9.25h-17.31c-7.53,0-10.84,2.11-10.84,9.25v13.67c0,6.63,2.71,8.44,11.29,8.44h16.1c7.37,0,11.14-2.92,11.14-8.44v-13.67Z"/>
      <path class="cls-1" d="M904.01,838.88h-31v3.82h73.74v26.03h-119.94v-50.26h70.88c4.06,0,5.57-1.11,5.57-2.71v-.4c0-1.71-1.96-2.51-5.57-2.51h-70.88v-25.93h77.2c32.81,0,45.9,9.85,45.9,26.74v1.81c0,12.36-9.78,23.42-45.9,23.42Z"/>
    </g>
    <g>
      <path class="cls-1" d="M88.2,299.49h-46.33v-64.4h47.17c66.43,0,79.82-20.24,79.82-57.05v-13.11h-89.87v48.53H0v-112.02h250.36v76.6c0,79.13-55.54,121.45-162.16,121.45Z"/>
      <path class="cls-1" d="M285.24,229.57v-68.55h239.19v68.55h-239.19Z"/>
      <path class="cls-1" d="M554.58,298.11v-71.54c11.16-2.3,15.07-6.67,15.07-28.75v-99.83h72.01v93.85c0,76.14-25.12,102.13-87.08,106.27ZM742.14,175.97v.46c0,43.24-10.33,51.52-13.68,51.52h-3.35l1.39-11.73v-118.23h-73.68v200.12h69.5c65.87,0,93.5-39.1,93.5-122.14h-73.68ZM815.82,175.51v.46-.46Z"/>
      <path class="cls-1" d="M1040.22,240.61c-41.03,0-77.87-4.6-107.73-14.26v71.77h-85.69V95.7h85.69v47.84c0,25.3,68.94,29.44,107.73,29.44h34.89v67.62h-34.89ZM1016.78,121.92v-26.22h67.82v26.22h-67.82ZM1016.78,156.42v-25.99h67.82v25.99h-67.82Z"/>
      <path class="cls-1" d="M106.16,756.98v-268.2c0-6.84-3.66-10.49-9.76-10.49H0v-135.01h152.93c51.25,0,82.16,37.4,82.16,91.22v322.47H106.16Z"/>
      <path class="cls-1" d="M584.11,762.45h-74.51c-159.21,0-206.38-40.14-206.38-176.06v-68.42c0-142.31,49.32-179.71,204.23-179.71h79.34c153.31,0,203.7,37.4,203.7,179.71v68.42c0,135.92-47.71,176.06-206.38,176.06ZM628.07,517.97c0-36.94-16.08-46.98-41.27-46.98h-79.34c-29.48,0-42.88,10.04-42.88,46.98v68.42c0,33.75,11.26,41.96,45.03,41.96h74.51c28.95,0,43.96-13.68,43.96-41.96v-68.42Z"/>
      <path class="cls-1" d="M839.95,586.91v-62.78l68.59,19.55v64.84l-68.59-21.61ZM909.58,763.14c-23.65,0-37.58-9.26-38.63-13.12l-31.01,15.18v-78.21l11.3-3.86v-10.55h-11.3v-64.06h68.59v84.65c0,10.29,2.37,12.86,12.09,12.86h1.05c1.31-2.57,2.37-5.15,3.42-8.23h-12.35v-29.07h15.5v-3.86h-11.04v-28.82h11.04v-6.95c-9.99-2.83-15.5-11.32-15.5-23.93v-37.31h28.12v-4.37h-28.12v-36.79h81.46v58.92h-30.75v2.57c0,2.83,1.58,4.37,3.42,4.37h12.35c7.88,0,14.98-1.03,19.71-3.6v-21.1h28.91v-4.37h-28.91v-36.79h82.25v58.92h-31.53v2.57c0,2.83,1.05,4.37,3.68,4.37h9.2c8.15,0,16.56-1.03,22.08-4.12v38.34c-3.15,1.54-8.67,2.57-14.19,3.09v6.18h10.77v28.82h-10.77v3.86h13.93v29.07h-8.67l1.58,8.23h7.36v57.12h-175.01ZM1014.7,705.77l-1.31-7.98h-24.18c-.53,3.34-1.31,5.92-1.84,8.23h28.12l-.79-.26ZM999.72,612.63v14.15c-2.1.77-4.73,1.54-7.62,2.06v7.2h14.19v-7.46h14.72c-9.2-1.8-18.4-6.95-21.29-15.95ZM1006.29,664.09h-14.19v6.43h14.19v-6.43Z"/>
    </g>
    <g>
      <path class="cls-1" d="M78.71,58.84c-2.03,8.7-9.02,14.91-21.98,14.91h-21.47c-13.07,0-19.14-6.39-22.08-14.91L0,1.15h31.91l10.64,44.91c.41,1.86,1.52,2.49,3.04,2.49h1.62c1.82,0,2.53-.62,2.94-2.49L59.66,1.15h32.21l-13.17,57.69Z"/>
      <path class="cls-1" d="M151.13,73.75v-13.14c0-3.64-1.82-5.24-6.08-5.24h-11.65v18.37h-30.9V1.33h51.26c17.52,0,27.96,5.68,27.96,25.65v4.26c0,5.77-1.92,10.3-5.47,13.67,4.15,2.75,5.67,7.1,5.67,13.31v15.53h-30.79ZM151.64,29.91c0-3.46-1.62-4.7-6.08-4.7h-12.16v9.59h12.16c4.56,0,6.08-1.86,6.08-4.08v-.8Z"/>
      <path class="cls-1" d="M238.85,74.99h-4.76c-29.17,0-39.71-7.9-39.71-32.22v-10.03c0-23.52,9.52-32.75,39.3-32.75h4.66c27.05,0,38.29,9.59,38.29,26.98v3.55h-29.07v-.98c0-3.73-2.84-5.59-9.22-5.59h-3.24c-8,0-10.43,3.02-10.43,8.79v10.03c0,6.39,4.36,8.43,10.84,8.43h3.34c6.99,0,9.22-2.93,9.22-6.3v-1.95h28.77v3.73c0,19.79-11.14,28.31-37.99,28.31Z"/>
      <path class="cls-1" d="M335.79,73.84v-26c0-2.4-1.01-3.9-4.46-3.9h-9.02c-3.34,0-4.46,1.24-4.46,4.26v25.65h-29.17V1.33h29.17v20.32c2.23-.8,4.46-1.33,6.69-1.33h16.41c16.21,0,24.01,5.59,24.01,21.92v31.6h-29.17Z"/>
      <path class="cls-1" d="M434.35,73.84h-37.58c-13.37,0-20.77-6.39-20.77-15v-3.73c0-8.52,7.19-14.02,19.45-14.02h29.98c0-1.86-.91-2.84-3.75-2.84h-42.54v-18.19h52.37c17.52,0,22.59,7.63,22.59,21.21v18.46c0,8.52-6.79,14.11-19.75,14.11ZM424.93,55.82c0-.71-.61-1.42-2.23-1.42h-15.29c-1.92,0-2.43.53-2.43,1.42v.71c0,.89.51,1.51,2.43,1.51h15.29c1.72,0,2.23-.44,2.23-1.51v-.71Z"/>
      <path class="cls-1" d="M502.01,43.58v4.26c0,2.4.41,2.84,3.65,2.84h27.86v23.16h-37.38c-16.81,0-22.79-6.92-22.79-17.48v-12.78h-12.66v-23.34h12.66v-10.12h28.67v10.12h32.92v23.34h-32.92Z"/>
    </g>
    <path class="cls-1" d="M1042.75,868.83h-81.26v-26.64h72.24c3.21,0,4.12-.8,4.12-2.31v-.6c0-1.51-1.22-2.31-4.12-2.31h-56.36c-11.61,0-15.88-3.72-15.88-11.16v-38.9h117.91v24.52h-73.01v2.51c0,1.01,1.07,1.41,2.75,1.41h33.6c32.53,0,41.85,8.85,41.85,23.92v4.72c0,17.09-11.3,24.83-41.85,24.83Z"/>
  </g>
</svg>